<?xml version="1.0" standalone="no"?>
<!DOCTYPE svg PUBLIC "-//W3C//DTD SVG 20010904//EN"
 "http://www.w3.org/TR/2001/REC-SVG-20010904/DTD/svg10.dtd">
<svg version="1.0" xmlns="http://www.w3.org/2000/svg"
 width="2000.000000pt" height="2000.000000pt" viewBox="0 0 2000.000000 2000.000000"
 preserveAspectRatio="xMidYMid meet">
<metadata>
Created by potrace 1.11, written by Peter Selinger 2001-2013
</metadata>
<g transform="translate(0.000000,2000.000000) scale(0.100000,-0.100000)"
fill="#000000" stroke="none">
<path d="M11484 19972 c2 -4 -3 -32 -11 -62 -8 -30 -20 -75 -26 -100 -6 -25
-13 -47 -16 -50 -4 -3 -7 -16 -9 -30 -1 -14 -5 -32 -9 -40 -3 -8 -7 -19 -8
-25 -5 -21 -76 -261 -82 -275 -9 -21 -9 -21 -17 -63 -5 -20 -12 -40 -17 -43
-5 -3 -7 -10 -4 -15 4 -5 1 -9 -6 -9 -7 0 -10 -3 -6 -6 3 -4 -1 -23 -9 -43 -8
-20 -15 -37 -15 -38 1 -2 1 -4 0 -5 0 -2 -2 -10 -4 -20 -3 -19 -62 -194 -75
-223 -12 -29 -51 -138 -54 -152 -1 -7 -5 -16 -9 -19 -4 -4 -7 -13 -7 -21 0 -7
-9 -32 -19 -56 -10 -23 -31 -76 -46 -117 -28 -75 -36 -96 -71 -180 -11 -24
-18 -48 -16 -52 1 -5 -3 -8 -10 -8 -6 0 -8 -3 -5 -6 4 -4 0 -19 -7 -33 -8 -14
-21 -43 -30 -63 -17 -40 -38 -88 -66 -153 -10 -22 -36 -80 -59 -128 -23 -49
-41 -93 -41 -98 0 -5 -5 -9 -12 -9 -6 0 -8 -3 -5 -6 4 -4 -18 -53 -48 -110
-29 -57 -52 -104 -49 -104 2 0 -6 -17 -19 -37 -12 -21 -29 -51 -37 -68 -8 -16
-23 -42 -33 -57 -10 -16 -15 -28 -11 -28 4 0 0 -8 -9 -17 -8 -10 -18 -30 -22
-45 -4 -15 -13 -29 -22 -32 -8 -3 -11 -10 -8 -16 3 -5 2 -10 -2 -10 -5 0 -15
-16 -22 -35 -7 -19 -17 -35 -22 -35 -5 0 -9 -9 -9 -20 0 -11 -3 -20 -8 -20 -4
0 -18 -21 -32 -47 -13 -27 -27 -50 -30 -53 -10 -10 -31 -46 -41 -72 -6 -16
-14 -28 -17 -28 -4 0 -16 -18 -26 -40 -11 -22 -23 -40 -28 -40 -4 0 -8 -6 -8
-13 0 -7 -7 -22 -15 -32 -30 -39 -125 -188 -125 -195 0 -5 -3 -10 -7 -12 -5
-1 -21 -23 -38 -48 -58 -87 -158 -225 -169 -232 -6 -4 -8 -8 -4 -8 3 0 -2 -10
-12 -22 -11 -13 -57 -72 -104 -133 -46 -60 -97 -124 -113 -142 -15 -17 -35
-41 -43 -53 -8 -12 -26 -34 -40 -49 -14 -15 -40 -45 -58 -66 -117 -139 -319
-352 -479 -505 -93 -88 -161 -150 -313 -284 -48 -42 -235 -192 -320 -257 -47
-35 -89 -67 -95 -72 -220 -167 -670 -452 -920 -584 -144 -75 -221 -117 -228
-123 -4 -3 16 -5 45 -4 93 4 272 15 308 19 19 2 73 7 120 10 47 3 101 8 120
10 19 2 73 7 120 11 47 3 92 7 100 9 8 2 53 6 100 9 47 4 96 9 110 11 14 3 54
7 90 10 36 3 81 7 100 10 19 2 60 7 90 10 30 3 71 8 90 10 19 2 60 7 90 10 55
6 161 18 255 30 28 4 68 8 90 11 22 2 56 6 75 9 19 2 73 9 120 15 145 18 157
20 260 35 75 11 93 14 140 20 111 15 386 63 428 74 31 9 36 7 33 -13 -1 -5 -4
-27 -6 -50 -2 -22 -6 -52 -9 -66 -2 -14 -7 -45 -10 -70 -3 -25 -8 -56 -11 -70
-3 -14 -8 -36 -10 -50 -13 -82 -82 -322 -116 -405 -7 -16 -13 -36 -15 -44 -1
-8 -9 -28 -18 -45 -8 -17 -29 -62 -47 -101 -18 -38 -35 -72 -38 -75 -3 -3 -7
-11 -9 -18 -1 -7 -23 -47 -48 -88 -25 -42 -44 -77 -42 -80 2 -2 20 1 39 7 19
5 41 12 49 14 55 13 229 71 343 114 304 114 650 283 904 442 179 112 526 359
568 403 6 6 42 36 80 67 39 31 81 66 95 78 14 12 54 48 90 79 88 77 431 420
510 511 36 41 71 80 78 87 6 7 12 18 12 25 0 7 3 9 6 6 4 -4 23 15 42 41 20
26 57 72 82 103 25 31 54 69 65 84 11 16 30 41 43 56 12 15 22 30 22 34 0 3 6
12 13 20 17 18 39 49 91 130 25 39 49 75 53 80 18 21 146 240 175 298 17 34
35 64 39 67 4 3 9 14 11 25 1 11 6 22 9 25 20 18 155 356 174 435 1 6 5 17 9
26 4 9 6 20 5 25 -1 5 3 22 10 38 6 16 10 35 7 42 -3 7 -1 14 3 16 4 2 22 77
40 168 39 203 41 216 57 315 3 17 7 39 8 50 4 23 14 96 21 159 25 211 20 509
-10 656 -3 14 -7 36 -10 49 -2 13 -6 26 -9 28 -2 2 -21 -18 -42 -44 -22 -26
-43 -53 -49 -59 -5 -6 -44 -54 -85 -107 -41 -53 -78 -97 -82 -97 -5 0 -8 -4
-8 -10 0 -8 -236 -310 -313 -400 -12 -14 -66 -79 -121 -145 -55 -66 -112 -133
-127 -150 -14 -16 -51 -57 -80 -90 -168 -188 -457 -462 -650 -618 -107 -86
-420 -297 -442 -297 -3 0 27 66 68 148 160 322 262 537 263 556 0 5 4 12 9 15
8 5 53 95 53 105 0 2 15 37 34 78 34 75 48 111 46 116 -1 2 6 14 14 28 9 13
14 24 10 24 -4 0 -2 6 4 13 11 13 81 189 87 218 2 9 8 25 14 35 21 39 130 406
137 464 2 14 10 59 19 100 9 41 18 93 21 115 3 22 7 58 10 80 3 22 7 72 9 110
2 39 5 70 5 70 6 0 4 157 -2 161 -4 3 -3 15 2 28 5 13 6 27 3 30 -3 3 -7 34
-9 68 -4 84 -10 128 -30 228 -3 14 -7 39 -10 55 -3 17 -8 37 -11 45 -3 8 -8
24 -10 35 -6 29 -9 38 -16 55 -4 8 -8 24 -10 35 -2 11 -7 27 -10 35 -3 8 -18
46 -32 84 -14 38 -30 75 -36 83 -6 7 -9 13 -5 13 9 0 -105 224 -116 228 -4 2
-8 9 -8 16 0 30 -233 355 -329 459 -30 32 -61 52 -47 29z"/>
<path d="M16446 19611 c-3 -4 10 -36 27 -72 126 -256 223 -542 267 -784 7 -38
14 -79 16 -90 2 -11 7 -42 10 -70 3 -27 7 -63 9 -80 10 -64 13 -373 5 -425 -4
-30 -11 -75 -14 -100 -24 -159 -99 -407 -178 -579 -46 -102 -149 -301 -196
-381 -9 -16 -44 -75 -77 -131 -33 -56 -70 -119 -82 -138 -13 -20 -26 -43 -30
-51 -11 -26 -114 -179 -213 -320 -313 -440 -535 -704 -900 -1070 -176 -177
-432 -421 -437 -417 -2 2 -13 105 -18 172 -2 28 -7 70 -11 95 -4 25 -7 48 -6
51 0 3 -3 37 -9 75 -5 38 -12 92 -15 119 -3 28 -10 52 -15 53 -5 2 -7 7 -4 12
3 4 0 30 -5 56 -6 27 -12 58 -14 69 -14 79 -30 145 -35 145 -3 0 -7 13 -8 30
-3 37 -43 170 -51 170 -4 0 -17 -15 -29 -33 -12 -17 -36 -48 -53 -67 -17 -19
-34 -39 -38 -45 -10 -13 -144 -177 -157 -191 -5 -6 -37 -42 -70 -80 -33 -37
-82 -93 -110 -124 -82 -90 -473 -479 -564 -560 -46 -41 -91 -82 -100 -90 -9
-8 -43 -37 -76 -65 -33 -27 -65 -54 -71 -60 -6 -5 -28 -23 -49 -40 -21 -16
-43 -35 -49 -40 -64 -58 -380 -296 -511 -385 -44 -30 -82 -57 -85 -60 -12 -14
-291 -190 -300 -190 -6 0 -10 -4 -10 -8 0 -5 -12 -15 -27 -23 -16 -7 -50 -27
-78 -44 -320 -198 -881 -479 -1280 -640 -376 -152 -878 -323 -1175 -399 -169
-44 -436 -109 -515 -125 -55 -12 -129 -28 -165 -36 -36 -8 -83 -17 -105 -21
-22 -3 -43 -8 -47 -11 -14 -8 -8 18 10 45 26 40 35 55 119 202 42 74 82 138
88 142 5 4 7 8 2 8 -4 0 3 17 16 38 13 20 27 47 31 60 4 12 12 22 18 22 6 0 9
3 6 6 -4 3 9 33 28 66 19 33 34 66 34 73 0 7 3 15 8 17 4 2 15 19 24 38 32 68
72 155 73 160 1 3 10 25 21 50 11 25 29 68 39 95 10 28 23 56 28 63 13 16 -11
16 -114 -4 -46 -9 -95 -18 -109 -20 -21 -4 -263 -57 -310 -69 -8 -2 -67 -15
-130 -30 -181 -41 -580 -151 -842 -231 -187 -57 -559 -179 -593 -194 -11 -5
-60 -23 -110 -40 -265 -93 -744 -287 -1015 -410 -58 -26 -127 -58 -155 -70
-123 -55 -614 -304 -710 -360 -16 -9 -55 -31 -85 -47 -165 -90 -486 -286 -645
-394 -38 -26 -71 -46 -74 -44 -7 7 19 126 46 210 29 90 93 225 158 333 24 39
42 72 39 72 -8 0 -293 -115 -359 -145 -167 -76 -376 -182 -515 -262 -66 -38
-291 -184 -321 -207 -14 -12 -38 -30 -53 -41 -183 -131 -421 -351 -577 -535
-225 -264 -417 -599 -543 -950 -31 -87 -98 -319 -110 -380 -3 -14 -14 -68 -25
-120 -10 -52 -22 -117 -26 -145 -3 -27 -10 -79 -15 -115 -19 -137 -31 -306
-34 -480 -2 -93 -5 -114 -16 -112 -13 3 -56 38 -154 122 -97 84 -219 224 -293
336 -7 11 -24 36 -38 57 -14 21 -25 42 -25 47 0 6 -4 10 -10 10 -5 0 -10 -2
-10 -5 0 -3 -9 -47 -20 -98 -31 -146 -56 -309 -68 -439 -14 -160 -7 -560 12
-653 2 -11 7 -42 10 -70 11 -86 76 -336 113 -435 144 -391 409 -712 798 -966
125 -81 127 -83 155 -96 14 -7 27 -15 30 -18 27 -27 421 -210 550 -255 3 -1
12 -5 20 -8 45 -19 248 -82 363 -112 194 -51 397 -91 607 -120 25 -3 56 -8 70
-10 14 -2 52 -6 85 -9 33 -4 76 -8 95 -11 78 -10 246 -21 465 -30 252 -11 306
-11 311 -3 3 5 0 8 -6 8 -19 0 -223 131 -325 209 -114 87 -291 256 -381 363
-125 149 -264 352 -311 453 -10 22 -21 42 -24 45 -8 7 -106 227 -113 255 -2 6
-6 17 -9 25 -41 107 -90 321 -105 460 -9 85 -8 342 1 390 3 14 8 48 12 75 22
164 113 410 210 570 13 22 27 47 31 55 14 30 150 205 204 264 342 370 810 631
1226 681 33 4 68 9 79 11 24 5 260 5 295 0 14 -2 50 -7 80 -11 88 -11 237 -53
343 -95 229 -92 450 -257 622 -465 28 -33 52 -62 55 -65 3 -3 10 -12 15 -21 6
-9 27 -41 48 -71 20 -30 37 -60 37 -66 0 -6 4 -12 8 -14 24 -9 147 -274 196
-423 42 -127 46 -139 82 -275 11 -44 24 -99 29 -130 4 -19 8 -39 9 -45 1 -5 4
-14 7 -20 4 -5 5 -18 4 -27 -2 -10 0 -18 3 -18 4 0 7 -10 8 -22 1 -25 13 -111
21 -143 2 -11 6 -38 8 -60 2 -22 6 -56 10 -75 4 -19 9 -60 11 -90 3 -30 7 -80
10 -110 8 -100 11 -534 3 -562 -5 -17 -4 -28 2 -28 6 0 8 -4 5 -8 -5 -8 -10
-57 -21 -187 -2 -27 -7 -77 -11 -110 -5 -33 -8 -70 -8 -82 -1 -13 -3 -23 -6
-23 -3 0 -5 -15 -6 -33 -1 -17 -11 -88 -22 -157 -28 -162 -31 -178 -42 -220
-9 -36 -20 -89 -25 -125 -2 -11 -4 -21 -5 -22 -2 -2 -4 -7 -5 -13 -1 -5 -4
-11 -5 -12 -1 -2 -4 -12 -6 -23 -1 -11 -10 -47 -19 -80 -9 -33 -17 -68 -18
-77 -1 -10 -6 -18 -11 -18 -5 0 -7 -3 -3 -6 3 -3 -3 -31 -14 -62 -11 -32 -19
-57 -19 -57 1 0 -1 -7 -4 -15 -16 -52 -30 -96 -32 -105 -6 -32 -142 -381 -180
-463 -13 -29 -24 -55 -24 -57 0 -9 -166 -341 -182 -364 -10 -13 -15 -28 -12
-33 3 -4 0 -8 -5 -8 -6 0 -11 -5 -11 -10 0 -6 -11 -27 -24 -48 -13 -20 -57
-93 -97 -162 -40 -69 -76 -127 -79 -130 -3 -3 -36 -52 -74 -110 -39 -58 -80
-118 -93 -135 -32 -41 -33 -43 -78 -105 -21 -30 -58 -78 -82 -107 -24 -28 -43
-56 -43 -62 0 -6 -4 -11 -8 -11 -4 0 -26 -24 -47 -52 -22 -29 -42 -55 -45 -58
-3 -3 -57 -68 -120 -144 -62 -76 -124 -151 -137 -165 -12 -14 -26 -30 -30 -36
-5 -5 -35 -41 -68 -80 -33 -38 -64 -75 -70 -82 -5 -7 -23 -28 -40 -46 -16 -18
-57 -63 -90 -101 -33 -38 -65 -74 -70 -80 -31 -34 -406 -457 -431 -485 -16
-19 -34 -39 -39 -45 -24 -25 -124 -137 -180 -200 -33 -38 -65 -74 -71 -80 -6
-6 -45 -51 -88 -101 -43 -49 -126 -141 -185 -204 -58 -62 -110 -120 -115 -128
-8 -14 15 -15 205 -10 118 4 234 9 259 11 25 3 72 8 105 11 33 3 69 8 80 10
11 2 48 7 81 9 65 6 106 11 194 26 30 5 74 12 97 15 53 6 348 64 369 72 22 8
16 -11 -46 -152 -10 -22 -28 -62 -40 -90 -70 -159 -254 -501 -302 -560 -5 -5
-23 -32 -40 -60 -18 -27 -35 -52 -38 -55 -4 -3 -20 -25 -37 -50 -203 -294
-585 -658 -905 -863 -32 -20 -82 -52 -111 -71 -29 -19 -69 -42 -90 -53 -20
-10 -37 -21 -37 -25 0 -7 65 -5 232 7 42 3 86 8 97 10 11 2 48 6 82 10 35 4
66 8 69 10 3 1 27 6 54 9 28 4 86 16 131 26 44 10 92 21 105 24 14 2 66 16
115 31 362 105 689 265 1030 504 97 67 333 248 355 271 3 3 34 30 70 60 58 50
93 81 209 188 86 80 264 258 390 391 168 178 174 185 236 257 28 31 66 74 85
94 19 20 53 59 74 86 22 27 49 59 60 70 19 19 39 43 112 132 l21 25 21 -35
c12 -20 22 -43 22 -52 0 -9 5 -16 12 -16 6 0 8 -3 5 -6 -3 -4 -2 -15 3 -24 21
-40 46 -147 66 -290 7 -48 7 -312 0 -385 -8 -88 -17 -166 -22 -195 -2 -14 -7
-43 -10 -65 -8 -60 -12 -79 -18 -95 -3 -8 -8 -33 -11 -55 -3 -22 -10 -58 -16
-80 -6 -22 -13 -51 -16 -65 -6 -38 -41 -164 -75 -270 -16 -52 -31 -99 -33
-105 -1 -5 -4 -14 -5 -20 -2 -5 -16 -40 -31 -78 l-28 -67 27 6 c40 10 169 70
227 106 199 126 450 357 730 672 11 12 40 46 65 76 25 29 50 58 55 64 51 55
345 443 345 457 0 5 4 9 8 9 4 0 16 15 27 33 10 17 21 34 24 37 4 3 31 43 61
89 30 46 61 90 68 98 7 7 10 13 5 13 -4 0 -3 4 3 8 6 4 35 48 65 97 30 50 57
92 62 93 4 2 7 10 7 18 0 8 4 14 10 14 5 0 9 3 8 8 -1 4 24 52 57 107 33 55
60 106 61 113 2 8 9 21 17 30 21 25 97 172 89 172 -4 0 -2 4 3 8 12 9 63 114
120 247 9 22 21 49 26 60 8 19 30 74 34 85 5 14 18 47 25 65 5 11 16 42 25 69
9 27 19 54 23 60 3 6 8 19 9 28 2 9 10 36 18 60 9 24 18 52 21 63 3 11 6 25 8
30 2 6 6 24 10 40 4 17 10 37 13 45 4 8 7 17 8 20 9 38 27 112 30 126 2 11 4
19 5 19 2 0 5 16 14 60 3 17 8 41 11 55 4 14 8 34 10 45 2 11 6 34 9 50 11 55
19 100 22 125 2 14 6 43 9 65 11 75 13 90 19 150 11 101 14 137 21 225 3 46 9
88 11 92 3 4 1 8 -5 8 -6 0 -7 11 -2 28 6 23 7 497 1 497 -1 0 -3 34 -5 75 -3
77 -12 192 -19 245 -2 17 -7 59 -10 95 -4 36 -8 76 -11 90 -2 14 -7 45 -9 70
-3 25 -8 56 -10 70 -3 14 -12 70 -21 125 -9 55 -19 103 -21 106 -2 4 15 11 39
18 23 6 141 38 262 72 121 33 227 62 235 64 38 9 244 73 445 137 409 131 876
307 1173 444 41 19 75 34 78 34 10 0 343 180 446 241 111 66 242 159 340 242
24 20 53 44 64 53 18 14 16 15 -21 10 -52 -7 -106 -14 -175 -21 -30 -3 -62 -8
-70 -10 -8 -2 -46 -6 -83 -10 -37 -3 -76 -8 -85 -10 -9 -1 -51 -6 -92 -10 -41
-3 -86 -8 -100 -10 -14 -2 -61 -6 -105 -10 -44 -3 -96 -8 -115 -10 -33 -4
-164 -12 -330 -21 -86 -4 -578 -4 -630 0 -19 2 -80 6 -135 10 -145 10 -232 20
-365 42 -52 8 -111 17 -130 20 -62 9 -300 64 -393 90 -191 54 -412 134 -567
206 l-75 35 240 -3 c325 -4 1136 -4 1210 0 33 2 116 7 185 11 69 3 141 8 160
10 19 2 73 6 120 10 47 3 96 8 110 10 14 2 59 7 100 11 41 4 82 8 90 9 8 1 44
5 80 9 36 4 76 9 90 12 14 2 86 13 160 24 74 11 144 21 155 24 11 2 42 7 70
10 52 7 365 70 425 86 19 5 46 11 60 14 14 2 72 16 130 31 58 15 112 28 120
30 39 8 310 89 445 133 496 163 946 365 1430 641 108 62 130 75 135 81 3 3 34
23 70 44 179 108 621 426 736 531 6 5 35 30 65 55 250 211 487 464 649 693 44
61 84 117 88 122 66 87 287 535 264 535 -4 0 -20 -8 -37 -18 -16 -10 -75 -42
-130 -72 -55 -29 -122 -65 -150 -80 -452 -248 -1133 -569 -1625 -767 -102 -41
-194 -78 -205 -83 -41 -19 -307 -115 -525 -190 -498 -170 -1199 -351 -1570
-406 -19 -3 -42 -7 -50 -9 -8 -3 -33 -7 -55 -10 -22 -3 -51 -7 -64 -10 -14 -2
-61 -9 -105 -15 -45 -6 -92 -13 -106 -15 -14 -2 -47 -6 -75 -9 -27 -3 -70 -8
-95 -12 -25 -3 -58 -7 -75 -9 -16 -2 -68 -7 -115 -10 -47 -4 -101 -9 -120 -11
-267 -26 -1020 -26 -1280 1 -43 4 -147 14 -215 20 -27 2 -84 9 -125 15 -41 6
-88 13 -105 15 -49 6 -189 27 -210 31 -11 2 -33 7 -50 9 -16 3 -68 13 -115 21
-47 9 -96 18 -110 20 -46 9 -334 75 -405 93 -38 10 -83 22 -99 25 -29 7 -29
18 2 21 9 1 52 5 95 9 43 4 86 9 95 11 9 1 51 6 92 10 41 3 86 8 100 10 22 3
65 7 205 20 22 2 69 6 105 10 115 10 154 14 220 20 36 3 85 8 110 10 25 3 72
7 105 10 33 3 76 7 95 10 19 2 71 7 115 11 44 3 88 8 98 10 10 2 53 6 95 10
42 3 84 7 92 9 13 2 59 8 180 21 85 8 148 16 170 19 47 7 185 25 235 30 28 3
75 10 105 15 30 5 78 12 105 15 28 3 62 8 78 10 15 3 42 7 60 10 17 3 55 10
82 15 46 8 91 16 155 25 28 4 71 12 110 20 26 5 52 10 105 19 169 29 728 160
990 232 33 9 65 17 70 19 6 1 17 4 25 7 8 3 67 20 130 38 235 66 766 248 907
311 23 11 46 19 51 19 5 0 22 6 38 14 16 8 106 47 199 87 336 145 834 406
1110 584 237 151 572 390 707 504 22 18 201 170 278 236 45 39 393 386 446
445 173 194 464 570 464 599 0 5 4 11 8 13 10 4 96 134 179 273 169 282 327
607 438 905 38 103 121 351 130 390 2 8 19 78 38 155 36 143 53 220 61 265 2
14 9 52 14 85 12 68 17 104 28 190 3 33 9 69 12 80 10 39 13 787 3 781 -5 -4
-69 -83 -141 -176 -139 -179 -408 -504 -525 -636 -38 -43 -92 -103 -119 -134
-27 -30 -68 -75 -92 -100 -23 -25 -77 -83 -120 -130 -88 -94 -462 -469 -570
-570 -145 -136 -320 -294 -399 -361 -22 -19 -42 -36 -45 -39 -17 -17 -218
-184 -345 -286 -346 -278 -620 -477 -990 -721 -247 -163 -276 -182 -365 -234
-41 -24 -77 -46 -80 -49 -3 -4 -25 -17 -50 -31 -25 -14 -90 -52 -145 -84 -238
-138 -389 -219 -636 -344 -109 -55 -205 -104 -215 -110 -28 -15 -216 -102
-402 -185 -538 -241 -1199 -480 -1787 -646 -99 -27 -196 -55 -215 -60 -65 -19
-512 -127 -597 -145 -13 -3 -33 -7 -45 -10 -13 -3 -45 -9 -73 -15 -48 -10 -76
-16 -112 -24 -19 -4 -219 -42 -266 -50 -15 -3 -54 -10 -87 -16 -71 -13 -78
-14 -200 -35 -52 -8 -108 -17 -125 -19 -16 -3 -93 -14 -170 -25 -77 -11 -162
-23 -190 -26 -27 -3 -59 -7 -70 -9 -12 -2 -52 -7 -90 -11 -39 -3 -83 -8 -100
-10 -48 -7 -115 -13 -195 -19 -67 -5 -48 1 185 64 143 38 269 72 280 74 11 3
45 12 75 21 30 9 62 18 71 20 28 6 299 85 386 111 46 14 89 27 95 28 14 2 137
40 353 108 72 22 261 83 420 136 665 218 947 312 1065 357 160 59 389 149 460
180 84 36 119 51 190 80 36 15 98 43 138 61 41 19 75 34 77 34 14 0 623 299
760 373 200 108 529 297 615 352 19 12 67 42 105 66 276 173 761 513 931 653
11 8 73 58 139 112 66 53 134 108 151 123 17 14 55 46 84 71 60 51 58 49 125
109 289 258 625 592 866 862 68 75 207 236 244 280 285 347 504 643 662 891
189 299 372 657 468 918 9 25 21 54 25 65 50 118 158 513 186 680 3 17 9 55
14 85 10 61 17 113 25 209 7 75 7 405 1 441 -2 14 -7 52 -10 85 -15 155 -61
352 -115 490 -24 62 -99 210 -139 274 -112 182 -285 348 -481 464 -143 84
-372 171 -507 193 -21 3 -42 8 -46 10 -3 2 -27 7 -51 9 -25 3 -55 8 -67 10
-13 2 -62 7 -109 10 -47 3 -110 8 -138 10 -29 2 -55 0 -57 -4z"/>
</g>
</svg>
